<svg version="1.1" xmlns="http://www.w3.org/2000/svg" xmlns:xlink="http://www.w3.org/1999/xlink" width="592.48122" height="568.5381" viewBox="0,0,592.48122,568.5381"><g transform="translate(-23.75939,104.26902)"><g stroke-miterlimit="10"><path d="M26.25939,220.68753c0,0 -2.5,-26.97069 -2.5,-40.375c0,-13.63346 2.5,-40.75 2.5,-40.75h6.75c0,0 -2.875,27.24815 -2.875,41c0,13.27283 2.875,40.125 2.875,40.125z" fill-opacity="0.2" fill="#ffffff" stroke="none" stroke-width="0"/><path d="M606.99061,220.68753c0,0 2.875,-26.85217 2.875,-40.125c0,-13.75185 -2.875,-41 -2.875,-41h6.75c0,0 2.5,27.11654 2.5,40.75c0,13.40431 -2.5,40.375 -2.5,40.375z" fill-opacity="0.2" fill="#ffffff" stroke="none" stroke-width="0"/><g><path d="M39.6143,180.00003c0,-154.85275 125.53296,-280.38571 280.38571,-280.38571c154.85275,0 280.38571,125.53296 280.38571,280.38571c0,154.85275 -125.53296,280.38571 -280.38571,280.38571c-154.85275,0 -280.38571,-125.53296 -280.38571,-280.38571z" fill="none" stroke="#ffffff" stroke-width="3"/><path d="M36.23096,180.00003c0,-156.72132 127.04773,-283.76905 283.76905,-283.76905c156.72132,0 283.76905,127.04773 283.76905,283.76905c0,156.72132 -127.04773,283.76905 -283.76905,283.76905c-156.72132,0 -283.76905,-127.04773 -283.76905,-283.76905z" fill="none" stroke="#ffffff" stroke-width="1"/><path d="M26.07189,140.75v-2.16667h16.16667v2.16667z" fill="#ffffff" stroke="none" stroke-width="0"/><path d="M26.07189,221.25003v-2.16666h16.16667v2.16666z" fill="#ffffff" stroke="none" stroke-width="0"/><path d="M597.76144,140.75v-2.16667h16.16667v2.16667z" fill="#ffffff" stroke="none" stroke-width="0"/><path d="M597.76144,221.25003v-2.16666h16.16667v2.16666z" fill="#ffffff" stroke="none" stroke-width="0"/></g></g></g></svg>