<svg version="1.1" xmlns="http://www.w3.org/2000/svg" xmlns:xlink="http://www.w3.org/1999/xlink" width="437.40781" height="432.8709" viewBox="0,0,437.40781,432.8709"><g transform="translate(103.43151,144.96891)"><g data-paper-data="{&quot;isPaintingLayer&quot;:true}" fill-rule="nonzero" stroke-width="0" stroke-linecap="butt" stroke-linejoin="miter" stroke-miterlimit="10" stroke-dasharray="" stroke-dashoffset="0" style="mix-blend-mode: normal"><path d="M59.81707,160.54844l-10.64816,-10.64816l35.18523,-35.18523l10.64816,10.64816z" fill-opacity="0.06667" fill="#110017" stroke-opacity="0.50196" stroke="#ffffff"/><path d="M91.53007,84.39094l-13.42594,-13.42594l53.47229,-53.47229l13.42594,13.42594z" fill-opacity="0.06667" fill="#110017" stroke="none"/><path d="M84.58561,204.76146l-16.20372,-16.20372l40.97227,-40.97227l16.20372,16.20372z" fill-opacity="0.06667" fill="#110017" stroke="none"/><path d="M1.23521,41.1056l-10.1852,-10.1852l33.79634,-33.79634l10.1852,10.1852z" fill-opacity="0.14902" fill="#110017" stroke="none"/><path d="M155.45761,114.29067l-12.03705,-12.03705l57.40748,-57.40748l12.03705,12.03705z" fill-opacity="0.06667" fill="#110017" stroke="none"/><path d="M198.51322,9.19795l-4.16667,-4.16667l44.4445,-44.4445l4.16667,4.16667z" fill-opacity="0.06667" fill="#110017" stroke="none"/><path d="M5.92039,129.56846l-19.90743,-19.90743l82.87047,-82.87047l19.90743,19.90743z" fill-opacity="0.06667" fill="#110017" stroke="none"/><path d="M-99.7278,212.2537l-3.70371,-3.70371l47.22228,-47.22228l3.70371,3.70371z" fill-opacity="0.14902" fill="#110017" stroke="none"/><path d="M8.2352,128.17958l-22.22225,-22.22225l69.44453,-69.44453l22.22225,22.22225z" fill-opacity="0.06667" fill="#110017" stroke="none"/><path d="M97.12421,87.43878l-36.11115,-36.11115l72.22231,-72.22231l36.11115,36.11115z" fill-opacity="0.06667" fill="#110017" stroke="none"/><path d="M-32.59812,270.45746l-6.48149,-6.48149l60.18526,-60.18526l6.48149,6.48149z" fill-opacity="0.06667" fill="#110017" stroke="none"/><path d="M123.05016,142.9944l-15.74076,-15.74076l69.90749,-69.90749l15.74076,15.74076z" fill-opacity="0.06667" fill="#110017" stroke="none"/><path d="M29.73214,128.43579l11.72841,11.72841l-17.59261,17.59261l-11.72841,-11.72841z" fill-opacity="0.06667" fill="#110017" stroke="none"/><path d="M25.21671,252.93904l-19.44447,-19.44447l56.01859,-56.01859l19.44447,19.44447z" fill-opacity="0.06667" fill="#110017" stroke="none"/><path d="M117.03164,199.01299l-5.0926,-5.0926l95.83345,-95.83345l5.0926,5.0926z" fill-opacity="0.06667" fill="#110017" stroke="none"/><path d="M249.4392,45.3091l-33.33337,-33.33337l16.66669,-16.66669l33.33337,33.33337z" fill-opacity="0.06667" fill="#110017" stroke="none"/><path d="M229.53177,88.36471l-9.25927,-9.25927l69.90749,-69.90749l9.25927,9.25927z" fill-opacity="0.06667" fill="#110017" stroke="none"/><path d="M124.43905,124.93883l-29.62967,-29.62967l85.18529,-85.18529l29.62967,29.62967z" fill-opacity="0.06667" fill="#110017" stroke="none"/><path d="M156.8465,34.19798l-11.57409,-11.57409l42.12968,-42.12968l11.57409,11.57409z" fill-opacity="0.06667" fill="#110017" stroke="none"/><path d="M56.84638,111.97585l-9.25927,-9.25927l35.64819,-35.64819l9.25927,9.25927z" fill-opacity="0.06667" fill="#110017" stroke="none"/><path d="M154.99464,-23.2095l-8.79631,-8.79631l31.94448,-31.94448l8.79631,8.79631z" fill-opacity="0.06667" fill="#110017" stroke="none"/><path d="M160.08722,-75.52438l-2.77778,-2.77778l66.66675,-66.66675l2.77778,2.77778z" fill-opacity="0.06667" fill="#110017" stroke="none"/><path d="M137.86499,49.47577l-16.20372,-16.20372l97.6853,-97.6853l16.20372,16.20372z" fill-opacity="0.06667" fill="#110017" stroke="none"/><path d="M9.32784,199.34639l-18.51854,-18.51854l51.38895,-51.38895l18.51854,18.51854z" fill-opacity="0.06667" fill="#110017" stroke="none"/><path d="M84.62419,194.38336l-11.11112,-11.11112l66.66675,-66.66675l11.11112,11.11112z" fill-opacity="0.06667" fill="#110017" stroke="none"/><path d="M146.19834,167.0685l-12.03705,-12.03705l63.426,-63.426l12.03705,12.03705z" fill-opacity="0.06667" fill="#110017" stroke="none"/><path d="M86.47604,161.04997l-6.48149,-6.48149l14.35187,-14.35187l6.48149,6.48149z" fill-opacity="0.06667" fill="#110017" stroke="none"/><path d="M214.25398,45.3091l-2.31482,-2.31482l10.1852,-10.1852l2.31482,2.31482z" fill-opacity="0.06667" fill="#110017" stroke="none"/><path d="M216.10583,63.82764l-1.38889,-1.38889l6.48149,-6.48149l1.38889,1.38889z" fill-opacity="0.06667" fill="#110017" stroke="none"/><path d="M251.29106,6.42016l-0.46296,-0.46296l14.81483,-14.81483l0.46296,0.46296z" fill-opacity="0.06667" fill="#110017" stroke="none"/><path d="M93.4205,111.51288l-11.57409,-11.57409l28.70374,-28.70374l11.57409,11.57409z" fill-opacity="0.06667" fill="#110017" stroke="none"/><path d="M246.01323,22.66094l-13.88891,-13.88891l87.96307,-87.96307l13.88891,13.88891z" fill-opacity="0.06667" fill="#110017" stroke="none"/><path d="M-17.22778,287.90199l-0.46296,-0.46296l41.66672,-41.66672l0.46296,0.46296z" fill-opacity="0.06667" fill="#110017" stroke="none"/><path d="M31.36483,277.42053l-4.62964,-4.62964l40.27783,-40.27783l4.62964,4.62964z" fill-opacity="0.06667" fill="#110017" stroke="none"/><path d="M-49.7278,166.77219l-21.29632,-21.29632l55.55562,-55.55562l21.29632,21.29632z" fill-opacity="0.06667" fill="#110017" stroke="none"/><path d="M83.2353,12.43869l-9.72223,-9.72223l43.51857,-43.51857l9.72223,9.72223z" fill-opacity="0.06667" fill="#110017" stroke="none"/><path d="M179.99468,-25.98728l-24.0741,-24.0741l48.14821,-48.14821l24.0741,24.0741z" fill-opacity="0.06667" fill="#110017" stroke="none"/><path d="M195.27247,16.1424l-6.01853,-6.01853l56.94451,-56.94451l6.01853,6.01853z" fill-opacity="0.06667" fill="#110017" stroke="none"/><path d="M200.51319,-28.87617l-7.40742,-7.40742l74.53713,-74.53713l7.40742,7.40742z" fill-opacity="0.06667" fill="#110017" stroke="none"/><path d="M46.19822,142.06848l-8.79631,-8.79631l75.92602,-75.92602l8.79631,8.79631z" fill-opacity="0.06667" fill="#110017" stroke="none"/></g></g></svg>