<svg version="1.1" xmlns="http://www.w3.org/2000/svg" xmlns:xlink="http://www.w3.org/1999/xlink" width="515" height="385" viewBox="0,0,515,385"><defs><linearGradient x1="-8" y1="179.16667" x2="468" y2="179.16667" gradientUnits="userSpaceOnUse" id="color-1"><stop offset="0" stop-color="#000000" stop-opacity="0.61176"/><stop offset="1" stop-color="#000000" stop-opacity="0"/></linearGradient><linearGradient x1="-47" y1="114.16666" x2="228" y2="114.16666" gradientUnits="userSpaceOnUse" id="color-2"><stop offset="0" stop-color="#ffffff" stop-opacity="0.33725"/><stop offset="1" stop-color="#ffffff" stop-opacity="0"/></linearGradient><linearGradient x1="-25" y1="176.66667" x2="171" y2="176.66667" gradientUnits="userSpaceOnUse" id="color-3"><stop offset="0" stop-color="#ffffff" stop-opacity="0.72941"/><stop offset="1" stop-color="#ffffff" stop-opacity="0"/></linearGradient><linearGradient x1="-25" y1="196.66667" x2="171" y2="196.66667" gradientUnits="userSpaceOnUse" id="color-4"><stop offset="0" stop-color="#ffe672" stop-opacity="0.72941"/><stop offset="1" stop-color="#ffe672" stop-opacity="0"/></linearGradient><linearGradient x1="-25" y1="216.66667" x2="171" y2="216.66667" gradientUnits="userSpaceOnUse" id="color-5"><stop offset="0" stop-color="#73ff76" stop-opacity="0.72941"/><stop offset="1" stop-color="#73ff76" stop-opacity="0"/></linearGradient><linearGradient x1="-25" y1="236.66667" x2="171" y2="236.66667" gradientUnits="userSpaceOnUse" id="color-6"><stop offset="0" stop-color="#ff7373" stop-opacity="0.72941"/><stop offset="1" stop-color="#ff7373" stop-opacity="0"/></linearGradient><linearGradient x1="-25" y1="256.66666" x2="171" y2="256.66666" gradientUnits="userSpaceOnUse" id="color-7"><stop offset="0" stop-color="#797979" stop-opacity="0.72941"/><stop offset="1" stop-color="#797979" stop-opacity="0"/></linearGradient></defs><g transform="translate(47,13.33334)"><g data-paper-data="{&quot;isPaintingLayer&quot;:true}" fill-rule="nonzero" stroke-width="0" stroke-linecap="butt" stroke-linejoin="miter" stroke-miterlimit="10" stroke-dasharray="" stroke-dashoffset="0" style="mix-blend-mode: normal"><path d="M-8,371.66667v-385h476v385z" fill="url(#color-1)" stroke="#000000"/><path d="M-47,128.66667v-29h275v29z" fill="url(#color-2)" stroke="#000000"/><path d="M-17,55.66666v-19h120v19z" fill-opacity="0.33725" fill="#ff9292" stroke="#000000"/><path d="M-10,88.66666v-31h41v31z" fill-opacity="0.72941" fill="#ffffff" stroke="none"/><path d="M-25,185.66667v-18h196v18z" fill="url(#color-3)" stroke="#000000"/><path d="M-25,205.66667v-18h196v18z" fill="url(#color-4)" stroke="#000000"/><path d="M-25,225.66667v-18h196v18z" fill="url(#color-5)" stroke="#000000"/><path d="M-25,245.66667v-18h196v18z" fill="url(#color-6)" stroke="#000000"/><path d="M-25,265.66666v-18h196v18z" fill="url(#color-7)" stroke="#000000"/></g></g></svg>